<svg width="444" height="326" viewBox="0 0 444 326" fill="none" xmlns="http://www.w3.org/2000/svg">
<g clip-path="url(#clip0_1472_11310)">
<path d="M413.369 310.043C430.818 310.043 444.74 292.505 443.97 271.499C442.962 244.034 431.307 205.252 385.367 166.495C329.345 119.232 357.667 -8.899 238.635 0.489806C119.603 9.87861 145.961 100.462 79.3841 155.404C18.9432 205.282 0.00326363 235.337 0 273.191C0 293.554 13.7312 310.043 30.6297 310.043H413.369Z" fill="#F3F5FD"/>
<path d="M366.702 7.47852H70.6631V221.815H366.702V7.47852Z" fill="#DEE8F5"/>
<path d="M366.702 7.47852H70.6631V25.1343H366.702V7.47852Z" fill="#C1D8ED"/>
<path d="M356.787 20.7366C359.234 20.7366 361.218 18.7533 361.218 16.3068C361.218 13.8603 359.234 11.877 356.787 11.877C354.34 11.877 352.356 13.8603 352.356 16.3068C352.356 18.7533 354.34 20.7366 356.787 20.7366Z" fill="white"/>
<path d="M207.115 108.199V91.6608C207.115 91.3489 206.991 91.0498 206.771 90.8292C206.55 90.6086 206.251 90.4847 205.939 90.4845H193.793C193.526 90.4834 193.268 90.3921 193.06 90.2255C192.852 90.0589 192.707 89.8269 192.648 89.5671C191.529 84.7915 189.639 80.2306 187.05 76.0644C186.908 75.8386 186.847 75.5716 186.877 75.3067C186.907 75.0419 187.025 74.7949 187.213 74.6059L195.801 66.0176C195.911 65.9085 195.997 65.7789 196.056 65.6362C196.116 65.4935 196.146 65.3406 196.146 65.1861C196.146 65.0317 196.116 64.8788 196.056 64.7361C195.997 64.5934 195.911 64.4638 195.801 64.3547L184.102 52.6569C183.881 52.4364 183.582 52.3126 183.27 52.3126C182.958 52.3126 182.658 52.4364 182.438 52.6569L173.847 61.2457C173.658 61.4339 173.411 61.5524 173.146 61.582C172.881 61.6117 172.614 61.5506 172.388 61.4089C168.222 58.8198 163.661 56.9285 158.885 55.8098C158.625 55.7509 158.392 55.6057 158.226 55.3978C158.059 55.1899 157.968 54.9316 157.966 54.6651V42.522C157.966 42.21 157.843 41.9108 157.622 41.6902C157.401 41.4696 157.102 41.3457 156.79 41.3457H140.246C139.934 41.3457 139.635 41.4696 139.414 41.6902C139.193 41.9108 139.07 42.21 139.07 42.522V54.6651C139.068 54.9316 138.977 55.1899 138.81 55.3978C138.644 55.6057 138.411 55.7509 138.151 55.8098C133.375 56.928 128.813 58.8185 124.646 61.4067C124.421 61.5486 124.153 61.6097 123.888 61.5801C123.623 61.5505 123.376 61.4318 123.187 61.2435L114.596 52.6514C114.487 52.5422 114.357 52.4555 114.214 52.3964C114.072 52.3373 113.919 52.3069 113.764 52.3069C113.61 52.3069 113.457 52.3373 113.314 52.3964C113.171 52.4555 113.041 52.5422 112.932 52.6514L101.237 64.3481C101.128 64.4573 101.041 64.5869 100.982 64.7296C100.923 64.8722 100.893 65.0252 100.893 65.1796C100.893 65.3341 100.923 65.487 100.982 65.6297C101.041 65.7723 101.128 65.9019 101.237 66.0111L109.828 74.5994C110.015 74.7887 110.133 75.0358 110.163 75.3007C110.192 75.5655 110.13 75.8324 109.988 76.0579C107.4 80.2244 105.509 84.7855 104.391 89.5611C104.332 89.8205 104.187 90.0523 103.98 90.2188C103.773 90.3854 103.515 90.4769 103.249 90.4785H91.1028C90.7908 90.4787 90.4916 90.6026 90.271 90.8232C90.0504 91.0438 89.9264 91.3429 89.9263 91.6548V108.193C89.9263 108.505 90.0502 108.804 90.2709 109.025C90.4915 109.245 90.7908 109.369 91.1028 109.369H103.249C103.515 109.371 103.773 109.462 103.98 109.629C104.188 109.796 104.333 110.028 104.391 110.287C105.509 115.063 107.4 119.623 109.989 123.789C110.131 124.015 110.192 124.282 110.163 124.547C110.134 124.811 110.016 125.059 109.828 125.248L101.237 133.837C101.017 134.057 100.893 134.356 100.893 134.668C100.893 134.98 101.017 135.279 101.237 135.5L112.932 147.191C113.041 147.301 113.171 147.387 113.314 147.446C113.457 147.506 113.61 147.536 113.764 147.536C113.919 147.536 114.072 147.506 114.214 147.446C114.357 147.387 114.487 147.301 114.596 147.191L123.187 138.603C123.375 138.415 123.622 138.296 123.887 138.267C124.152 138.237 124.42 138.298 124.645 138.44C128.812 141.028 133.375 142.919 138.151 144.037C138.411 144.096 138.643 144.24 138.81 144.448C138.976 144.655 139.068 144.913 139.07 145.179V157.322C139.069 157.477 139.1 157.629 139.159 157.772C139.218 157.915 139.305 158.045 139.414 158.154C139.523 158.263 139.653 158.35 139.796 158.409C139.939 158.468 140.092 158.498 140.246 158.498H156.788C156.942 158.498 157.095 158.468 157.238 158.409C157.381 158.35 157.511 158.263 157.62 158.154C157.729 158.045 157.816 157.915 157.875 157.772C157.934 157.629 157.964 157.477 157.964 157.322V145.19C157.965 144.924 158.057 144.665 158.223 144.458C158.39 144.25 158.623 144.104 158.883 144.046C163.659 142.928 168.222 141.037 172.389 138.449C172.615 138.307 172.882 138.246 173.147 138.276C173.412 138.306 173.659 138.424 173.848 138.612L182.437 147.199C182.658 147.419 182.957 147.543 183.269 147.543C183.581 147.543 183.88 147.419 184.101 147.199L195.801 135.507C195.91 135.397 195.997 135.268 196.056 135.125C196.115 134.982 196.145 134.829 196.145 134.675C196.145 134.52 196.115 134.368 196.056 134.225C195.997 134.082 195.91 133.952 195.801 133.843L187.21 125.254C187.022 125.066 186.903 124.818 186.873 124.554C186.844 124.289 186.905 124.022 187.047 123.796C189.636 119.63 191.527 115.069 192.645 110.294C192.704 110.034 192.849 109.802 193.057 109.635C193.265 109.469 193.523 109.377 193.79 109.376H205.936C206.091 109.377 206.245 109.346 206.388 109.287C206.531 109.228 206.661 109.142 206.77 109.032C206.88 108.923 206.967 108.793 207.026 108.65C207.085 108.507 207.115 108.354 207.115 108.199ZM149.369 126.151C144.109 126.321 138.918 124.907 134.472 122.091C130.026 119.275 126.53 115.187 124.438 110.359C122.346 105.53 121.754 100.185 122.74 95.016C123.726 89.8472 126.243 85.0942 129.966 81.3744C133.688 77.6545 138.444 75.1398 143.614 74.1567C148.785 73.1736 154.131 73.7677 158.96 75.8617C163.788 77.9557 167.875 81.453 170.69 85.8991C173.505 90.3453 174.917 95.535 174.744 100.794C174.525 107.452 171.781 113.777 167.069 118.486C162.356 123.195 156.028 125.935 149.369 126.151Z" fill="white"/>
<path d="M275.526 164.474L273.279 154.38C273.258 154.285 273.218 154.196 273.163 154.117C273.108 154.038 273.037 153.971 272.955 153.919C272.874 153.867 272.783 153.832 272.688 153.815C272.593 153.799 272.495 153.801 272.401 153.822L264.987 155.472C264.824 155.507 264.654 155.486 264.505 155.413C264.355 155.34 264.235 155.218 264.163 155.067C262.832 152.304 261.058 149.777 258.911 147.585C258.794 147.467 258.72 147.313 258.702 147.147C258.684 146.981 258.722 146.814 258.811 146.673L262.887 140.264C262.992 140.099 263.027 139.9 262.985 139.709C262.942 139.519 262.826 139.353 262.662 139.248L253.93 133.698C253.765 133.593 253.566 133.558 253.375 133.601C253.185 133.643 253.019 133.759 252.914 133.924L248.838 140.334C248.748 140.474 248.613 140.58 248.455 140.634C248.296 140.688 248.125 140.686 247.968 140.63C245.072 139.616 242.031 139.082 238.963 139.048C238.797 139.048 238.635 138.991 238.505 138.886C238.375 138.782 238.284 138.637 238.247 138.475L236.597 131.062C236.576 130.968 236.536 130.878 236.481 130.799C236.425 130.72 236.355 130.653 236.273 130.601C236.192 130.549 236.101 130.514 236.006 130.497C235.911 130.481 235.813 130.483 235.719 130.504L225.626 132.751C225.436 132.793 225.27 132.91 225.165 133.074C225.06 133.239 225.025 133.438 225.067 133.629L226.718 141.041C226.754 141.204 226.733 141.374 226.659 141.524C226.586 141.673 226.464 141.793 226.313 141.865C223.55 143.196 221.022 144.97 218.831 147.116C218.712 147.233 218.557 147.307 218.392 147.325C218.226 147.343 218.059 147.305 217.918 147.216L211.506 143.137C211.342 143.033 211.142 142.998 210.952 143.04C210.761 143.083 210.596 143.199 210.491 143.363L204.943 152.092C204.838 152.257 204.803 152.456 204.846 152.646C204.888 152.837 205.004 153.002 205.169 153.107L211.58 157.183C211.72 157.273 211.826 157.408 211.88 157.566C211.934 157.724 211.932 157.896 211.876 158.053C210.862 160.947 210.328 163.988 210.294 167.055C210.294 167.222 210.237 167.383 210.133 167.513C210.028 167.643 209.883 167.734 209.721 167.771L202.306 169.421C202.212 169.442 202.123 169.481 202.044 169.537C201.964 169.592 201.897 169.663 201.845 169.744C201.793 169.826 201.758 169.917 201.741 170.012C201.725 170.107 201.727 170.204 201.748 170.299L203.996 180.394C204.017 180.488 204.057 180.577 204.112 180.656C204.167 180.735 204.238 180.803 204.32 180.855C204.401 180.906 204.492 180.942 204.587 180.958C204.682 180.975 204.78 180.973 204.874 180.952L212.288 179.302C212.451 179.266 212.621 179.287 212.77 179.36C212.92 179.434 213.04 179.556 213.112 179.706C214.443 182.47 216.217 184.997 218.364 187.188C218.481 187.306 218.555 187.461 218.573 187.627C218.591 187.792 218.553 187.959 218.464 188.1L214.384 194.509C214.28 194.674 214.245 194.873 214.287 195.064C214.33 195.254 214.446 195.42 214.611 195.525L223.339 201.071C223.42 201.123 223.511 201.159 223.606 201.175C223.701 201.192 223.799 201.19 223.893 201.169C223.988 201.148 224.077 201.108 224.156 201.053C224.235 200.997 224.302 200.927 224.354 200.845L228.43 194.436C228.521 194.295 228.656 194.19 228.814 194.136C228.972 194.082 229.144 194.083 229.301 194.14C232.196 195.154 235.238 195.688 238.306 195.721C238.472 195.722 238.634 195.779 238.764 195.883C238.894 195.987 238.985 196.133 239.022 196.295L240.672 203.707C240.693 203.802 240.732 203.891 240.788 203.97C240.843 204.049 240.914 204.116 240.995 204.168C241.077 204.22 241.168 204.255 241.263 204.272C241.358 204.288 241.455 204.286 241.55 204.265L251.647 202.018C251.741 201.997 251.831 201.958 251.91 201.903C251.989 201.847 252.056 201.777 252.108 201.695C252.16 201.614 252.195 201.523 252.212 201.427C252.229 201.332 252.227 201.235 252.206 201.14L250.555 193.728C250.519 193.566 250.54 193.396 250.613 193.246C250.687 193.096 250.809 192.976 250.96 192.905C253.724 191.574 256.251 189.8 258.443 187.654C258.562 187.537 258.717 187.463 258.882 187.445C259.048 187.427 259.215 187.465 259.356 187.554L265.766 191.629C265.848 191.681 265.939 191.716 266.034 191.733C266.129 191.75 266.227 191.748 266.321 191.727C266.415 191.706 266.505 191.667 266.584 191.611C266.663 191.556 266.73 191.485 266.782 191.404L272.335 182.677C272.386 182.596 272.422 182.505 272.438 182.41C272.455 182.314 272.453 182.217 272.432 182.123C272.411 182.028 272.371 181.939 272.316 181.86C272.26 181.781 272.19 181.714 272.108 181.662L265.697 177.583C265.556 177.493 265.45 177.358 265.397 177.2C265.343 177.042 265.344 176.87 265.4 176.713C266.414 173.819 266.949 170.778 266.983 167.711C266.983 167.544 267.041 167.383 267.145 167.253C267.249 167.123 267.395 167.032 267.557 166.995L274.971 165.346C275.159 165.302 275.323 165.187 275.427 165.024C275.531 164.861 275.567 164.663 275.526 164.474ZM242.718 183.277C239.53 184.096 236.17 183.938 233.074 182.823C229.977 181.708 227.287 179.687 225.354 177.025C223.421 174.362 222.333 171.179 222.232 167.89C222.131 164.601 223.022 161.358 224.789 158.582C226.555 155.806 229.116 153.625 232.139 152.322C235.161 151.02 238.506 150.656 241.737 151.278C244.969 151.9 247.939 153.48 250.262 155.812C252.584 158.143 254.151 161.119 254.76 164.353C255.532 168.446 254.716 172.679 252.48 176.194C250.244 179.708 246.754 182.241 242.718 183.277Z" fill="#C1D8ED"/>
<path d="M74.8696 228.507C74.8696 228.507 79.0754 226.277 78.1365 214.827L86.8265 213.216C86.8265 213.216 85.8501 223.482 90.2462 226.741L74.8696 228.507Z" fill="#E98862"/>
<path opacity="0.15" d="M88.4658 224.597L81.2461 219.075L86.9167 219.017C87.0808 220.957 87.6062 222.85 88.4658 224.597Z" fill="black"/>
<path d="M73.2055 210.387C73.8071 213.862 75.7033 217.152 78.7684 218.272C82.4073 219.605 85.1026 219.695 89.298 219.695C95.0229 219.695 94.8336 213.726 94.9946 207.71C95.1578 201.674 94.6753 195.193 92.4126 193.088C87.8979 188.888 74.6404 191.548 73.0282 198.574C72.1943 202.208 72.6328 207.08 73.2055 210.387Z" fill="#E98862"/>
<path d="M98.0631 196.581C98.0631 196.581 100.407 196.058 99.7656 193.72C99.3402 192.17 97.3538 192.514 97.3538 192.514C97.3538 192.514 99.2347 192.17 99.2347 190.528C99.2347 189.495 98.4395 187.741 96.0412 188.743C93.2269 189.918 90.0171 189.768 87.577 189.357C86.1964 189.055 84.7951 188.857 83.3849 188.765H83.3772C81.756 188.737 80.1398 188.953 78.583 189.406C74.2206 190.712 67.6188 194.622 69.0221 203.487C70.5887 213.382 75.2328 217.166 77.2759 218.379C77.3968 218.452 77.5326 218.496 77.6732 218.509C77.8137 218.521 77.9553 218.502 78.0872 218.452C78.2191 218.402 78.3379 218.322 78.4346 218.22C78.5313 218.117 78.6034 217.994 78.6455 217.859C79.2248 216.005 80.2229 211.339 79.9439 201.718C93.3531 201.06 97.2112 200.861 97.2112 200.861C97.2112 200.861 100.366 200.979 100.366 198.673C100.366 196.368 98.0631 196.581 98.0631 196.581Z" fill="#0F1011"/>
<path d="M86.8136 207.712C87.2489 207.712 87.6017 207.359 87.6017 206.924C87.6017 206.489 87.2489 206.136 86.8136 206.136C86.3783 206.136 86.0254 206.489 86.0254 206.924C86.0254 207.359 86.3783 207.712 86.8136 207.712Z" fill="#0F1011"/>
<path d="M93.0318 207.202C93.4671 207.202 93.82 206.849 93.82 206.414C93.82 205.979 93.4671 205.626 93.0318 205.626C92.5965 205.626 92.2437 205.979 92.2437 206.414C92.2437 206.849 92.5965 207.202 93.0318 207.202Z" fill="#0F1011"/>
<path d="M92.3096 204.339L94.3978 204.365" stroke="#0F1011" stroke-width="1.362" stroke-miterlimit="10" stroke-linecap="round"/>
<path d="M85.1133 205.125L87.1715 204.63" stroke="#0F1011" stroke-width="1.362" stroke-miterlimit="10" stroke-linecap="round"/>
<path d="M82.7141 208.852C82.7805 209.731 82.496 210.602 81.9227 211.273C81.3493 211.944 80.5338 212.361 79.6541 212.432C78.7744 212.504 77.902 212.225 77.2274 211.656C76.5528 211.087 76.1308 210.274 76.0536 209.395C76.0102 208.957 76.0555 208.514 76.1869 208.093C76.3182 207.672 76.5329 207.282 76.8182 206.946C77.1035 206.61 77.4535 206.335 77.8474 206.137C78.2413 205.939 78.671 205.822 79.111 205.793C81.4924 205.718 82.5629 207.013 82.7141 208.852Z" fill="#E98862"/>
<g opacity="0.15">
<path d="M90.3127 211.294C90.2475 211.294 90.1845 211.271 90.1351 211.229C90.0857 211.186 90.0532 211.127 90.0435 211.063C90.0339 210.999 90.0476 210.933 90.0824 210.878C90.1171 210.823 90.1704 210.782 90.2327 210.763L91.8363 210.27L90.7146 207.774C90.6861 207.708 90.6846 207.634 90.7104 207.567C90.7362 207.501 90.7873 207.447 90.8526 207.417C90.9178 207.388 90.992 207.386 91.059 207.411C91.1261 207.436 91.1806 207.486 91.2107 207.551L92.4585 210.328C92.4743 210.363 92.4825 210.401 92.4824 210.44C92.4824 210.478 92.4742 210.517 92.4583 210.552C92.4424 210.587 92.4192 210.618 92.3903 210.644C92.3613 210.669 92.3273 210.688 92.2904 210.7L90.3926 211.282C90.3667 211.29 90.3398 211.294 90.3127 211.294Z" fill="black"/>
</g>
<path d="M87.1787 213.129C87.1787 213.129 90.0877 213.436 92.1286 212.724C92.1286 212.724 92.1128 214.639 89.8103 214.828C87.5078 215.017 87.1787 213.129 87.1787 213.129Z" fill="#F8FCFF"/>
<path d="M109.027 312.608C110.06 312.434 121.719 310.443 121.719 310.443L119.797 299.187C119.797 299.187 108.169 301.172 107.139 301.345L109.027 312.608Z" fill="#E98862"/>
<path d="M128.369 323.406C128.419 323.709 128.405 324.019 128.329 324.317C128.253 324.614 128.117 324.893 127.928 325.136C127.74 325.378 127.503 325.579 127.234 325.726C126.964 325.873 126.667 325.963 126.361 325.99C125.937 326.028 125.511 325.943 125.133 325.747C124.755 325.55 124.442 325.25 124.229 324.881L117.641 312.507C117.514 312.267 117.441 312.003 117.426 311.732C117.411 311.461 117.454 311.19 117.554 310.938C118.503 308.927 118.781 306.664 118.348 304.482C117.941 302.795 117.067 301.256 115.827 300.041C115.706 299.936 115.618 299.799 115.573 299.646C115.528 299.493 115.527 299.33 115.571 299.176C115.615 299.023 115.701 298.885 115.821 298.779C115.94 298.673 116.087 298.603 116.244 298.577L122.656 297.503C122.846 297.472 123.039 297.478 123.226 297.521C123.413 297.564 123.589 297.644 123.745 297.756C123.901 297.868 124.033 298.009 124.134 298.172C124.236 298.335 124.304 298.516 124.334 298.705L128.369 323.406Z" fill="#C1D8ED"/>
<path d="M72.9331 282.162C68.0948 282.363 63.1667 282.505 58.2386 282.627L50.8323 282.79L43.4347 282.923L42.6977 282.936C39.6423 282.993 36.7224 284.207 34.5267 286.332C32.3309 288.457 31.0226 291.335 30.8656 294.386C30.7085 297.437 31.7144 300.434 33.6805 302.773C35.6465 305.112 38.4264 306.619 41.4597 306.99L114.565 315.864L117.544 294.264L44.7647 283.032L42.7891 307.099L50.3003 307.584L57.8067 308.038C62.8191 308.327 67.8331 308.598 72.9375 308.808L72.9331 282.162Z" fill="#262626"/>
<path d="M54.4919 307.879C64.5842 306.41 65.5883 306.139 65.9212 306.052L62.9529 295.024C62.9866 295.016 63.0301 295.004 63.0829 294.992C62.2556 295.173 57.1262 295.956 52.8481 296.578L54.4919 307.879Z" fill="#E98862"/>
<path d="M41.8834 317.695C41.7774 317.983 41.7319 318.29 41.7499 318.597C41.7679 318.903 41.849 319.203 41.9881 319.477C42.1271 319.75 42.3212 319.993 42.5581 320.188C42.795 320.384 43.0698 320.528 43.3651 320.613C43.7744 320.73 44.2086 320.728 44.6167 320.606C45.0248 320.485 45.3897 320.25 45.6687 319.929L54.4865 309.03C54.6558 308.818 54.7775 308.573 54.8432 308.31C54.9089 308.047 54.9171 307.773 54.8672 307.507C54.3175 305.352 54.4738 303.077 55.3133 301.018C56.0335 299.438 57.1832 298.093 58.6313 297.136C58.7692 297.055 58.8814 296.937 58.9548 296.796C59.0282 296.654 59.0599 296.495 59.046 296.336C59.0322 296.177 58.9734 296.025 58.8765 295.898C58.7797 295.771 58.6488 295.675 58.4991 295.619L52.407 293.348C52.2273 293.282 52.0362 293.251 51.8445 293.258C51.6529 293.265 51.4646 293.31 51.2903 293.39C51.1161 293.47 50.9593 293.583 50.8291 293.724C50.6989 293.865 50.5978 294.03 50.5315 294.21L41.8834 317.695Z" fill="#C1D8ED"/>
<path d="M89.1654 306.85C92.2289 306.59 95.2907 306.402 98.3526 306.226C101.414 306.062 104.476 305.899 107.536 305.79L112.127 305.614L116.717 305.482C119.777 305.38 122.836 305.337 125.895 305.279L124.834 283.304C119.107 284.104 113.372 284.84 107.639 285.594C101.906 286.347 96.167 287.042 90.429 287.747L81.8174 288.76L73.1992 289.725C67.4503 290.343 61.7014 290.957 55.9395 291.462L58.4682 313.122C64.1915 312.288 69.9268 311.561 75.6632 310.838L84.2727 309.794L92.8876 308.799C98.6343 308.165 104.38 307.52 110.13 306.932C115.881 306.345 121.633 305.742 127.391 305.203C130.152 304.943 132.713 303.651 134.562 301.585C136.411 299.518 137.412 296.83 137.364 294.058C137.316 291.286 136.222 288.634 134.303 286.634C132.383 284.633 129.778 283.43 127.01 283.267L126.329 283.228C123.274 283.049 120.219 282.886 117.165 282.664L112.584 282.35L108.004 281.992C104.95 281.762 101.897 281.476 98.8448 281.194C95.7922 280.897 92.7402 280.587 89.6892 280.206L89.1654 306.85Z" fill="#262626"/>
<path d="M61.8176 278.826L60.2075 305.856L106.709 305.31L103.199 281.379L61.8176 278.826Z" fill="#262626"/>
<path d="M46.9876 277.799C47.4766 278.541 48.126 279.163 48.8879 279.62C49.6497 280.077 50.5046 280.357 51.3892 280.439L58.8303 281.131C58.8335 281.221 58.8341 281.311 58.8401 281.402C59.4384 290.615 104.221 288.439 106.5 283.202C107.337 281.281 107.269 279.619 106.846 277.482L115.429 278.705C116.427 278.847 117.445 278.724 118.379 278.346C119.313 277.968 120.131 277.35 120.749 276.555C121.367 275.759 121.764 274.814 121.899 273.815C122.033 272.817 121.901 271.801 121.516 270.869L105.805 232.862C104.85 228.527 101.834 225.646 94.3506 225.324C94.0079 225.307 93.4585 225.296 92.7514 225.286C92.61 228.276 74.0834 228.266 73.6918 225.215C68.4591 225.22 64.1674 226.825 61.6816 229.31C60.1915 230.723 59.1304 232.527 58.6203 234.516L46.2946 272.718C46.0223 273.563 45.9432 274.458 46.0632 275.338C46.1831 276.217 46.499 277.058 46.9876 277.799ZM104.645 265.632C104.455 263.728 104.325 261.573 104.293 259.116L107.133 265.986L104.645 265.632ZM63.5805 257.756C63.6066 258.167 63.6245 258.58 63.6245 258.996C63.6323 262.565 63.0919 266.114 62.0221 269.519L59.8502 269.317L63.5805 257.756Z" fill="#367CFF"/>
<path d="M77.2872 243.491L75.3649 272.138C75.3423 272.476 75.3892 272.815 75.5029 273.134C75.6166 273.452 75.7946 273.745 76.0258 273.992C76.257 274.239 76.5366 274.436 76.8471 274.571C77.1577 274.706 77.4926 274.775 77.8311 274.775H117.853C118.464 274.775 119.054 274.549 119.508 274.139C119.962 273.73 120.249 273.166 120.312 272.558L123.273 243.911C123.309 243.567 123.272 243.219 123.164 242.89C123.057 242.561 122.882 242.259 122.65 242.002C122.418 241.745 122.135 241.539 121.819 241.399C121.503 241.258 121.16 241.186 120.814 241.186H79.7534C79.1265 241.186 78.523 241.424 78.0651 241.852C77.6072 242.28 77.3291 242.866 77.2872 243.491Z" fill="#9EBCEA"/>
<path d="M114.51 271.325H72.4602C71.5073 271.325 70.7349 272.097 70.7349 273.05C70.7349 274.003 71.5073 274.775 72.4602 274.775H114.51C115.463 274.775 116.235 274.003 116.235 273.05C116.235 272.097 115.463 271.325 114.51 271.325Z" fill="#9EBCEA"/>
<path d="M100.379 261.787C102.482 261.787 104.186 260.083 104.186 257.98C104.186 255.878 102.482 254.174 100.379 254.174C98.276 254.174 96.5713 255.878 96.5713 257.98C96.5713 260.083 98.276 261.787 100.379 261.787Z" fill="white"/>
<path d="M94.8933 278.413C92.451 279.92 88.6707 280.632 85.3744 280.893L85.1895 274.889C86.7397 274.846 89.1221 274.683 91.4556 274.775C92.5098 273.916 93.1168 273.66 94.1993 272.578C95.3513 271.426 98.3745 270.735 98.9457 272.578C99.5168 274.422 97.0386 277.086 94.8933 278.413Z" fill="#E98862"/>
<path d="M92.7491 225.286C92.6077 228.276 90.9813 232.676 85.9607 233.008C79.2703 233.448 74.0811 228.266 73.6895 225.215H73.7058C80.2929 225.215 88.9089 225.226 92.7491 225.286Z" fill="#E98862"/>
<path d="M110.385 216.973L117.364 212.564H150.441V185.648H110.385V216.973Z" fill="#FBB615"/>
<path d="M144.555 200.226L135.541 204.6V202.907L142.691 199.561V199.523L135.541 196.196V194.485L144.555 198.858V200.226Z" fill="white" stroke="white" stroke-width="0.811" stroke-miterlimit="10"/>
<path d="M131.83 205.36L127.19 191.575H128.826L133.466 205.36H131.83Z" fill="white" stroke="white" stroke-width="0.811" stroke-miterlimit="10"/>
<path d="M116.272 198.819L125.287 194.484V196.176L118.022 199.523V199.561L125.287 202.907V204.6L116.272 200.264V198.819Z" fill="white" stroke="white" stroke-width="0.811" stroke-miterlimit="10"/>
<path d="M357.996 304.478C356.791 294.353 356.791 293.312 356.791 292.969H368.214C368.214 292.934 368.214 292.89 368.214 292.836C368.254 293.682 368.83 298.837 369.341 303.129L357.996 304.478Z" fill="#E98862"/>
<path d="M403.51 305.845C403.51 305.845 403.472 294.018 403.472 292.971H414.894C414.894 294.015 414.933 305.807 414.933 305.807L403.51 305.845Z" fill="#E98862"/>
<path d="M373.904 300.873L353.778 300.53C354.614 279.342 354.757 255.107 354.982 233.177C355.044 227.742 355.455 222.316 356.211 216.933C359.448 193.699 361.56 170.598 365.92 147.5L366.065 147.543L366.49 144.645L407.871 142.089L410.028 169.124C410.028 169.124 415.419 262.63 417.877 300.228L397.822 301.921C394.209 265.059 388.617 211.347 385.178 172.622C381.228 191.476 378.542 210.998 375.107 229.69C374.42 253.088 373.84 277.545 373.904 300.873Z" fill="#262626"/>
<path d="M389.623 310.261C389.316 310.259 389.013 310.195 388.732 310.071C388.451 309.947 388.198 309.766 387.99 309.54C387.782 309.314 387.623 309.048 387.522 308.758C387.422 308.467 387.382 308.16 387.406 307.854C387.439 307.429 387.593 307.023 387.849 306.683C388.105 306.343 388.453 306.083 388.852 305.934L402.147 301.482C402.405 301.397 402.678 301.368 402.948 301.398C403.217 301.428 403.477 301.516 403.71 301.656C405.537 302.924 407.724 303.572 409.948 303.505C411.679 303.382 413.342 302.775 414.745 301.753C414.868 301.651 415.018 301.587 415.176 301.568C415.335 301.549 415.495 301.575 415.64 301.643C415.784 301.711 415.905 301.819 415.99 301.954C416.076 302.089 416.121 302.246 416.12 302.405V308.905C416.12 309.096 416.082 309.286 416.009 309.463C415.935 309.64 415.827 309.801 415.691 309.937C415.555 310.072 415.394 310.179 415.217 310.252C415.039 310.325 414.849 310.362 414.657 310.361L389.623 310.261Z" fill="#C1D8ED"/>
<path d="M344.078 310.261C343.771 310.26 343.467 310.195 343.186 310.071C342.905 309.947 342.653 309.766 342.445 309.54C342.237 309.314 342.077 309.048 341.977 308.758C341.876 308.468 341.837 308.16 341.861 307.854C341.894 307.429 342.047 307.023 342.304 306.683C342.56 306.343 342.908 306.083 343.307 305.934L356.602 301.482C356.86 301.397 357.132 301.368 357.402 301.398C357.672 301.428 357.932 301.516 358.164 301.656C359.992 302.924 362.178 303.572 364.402 303.505C366.134 303.382 367.797 302.775 369.2 301.753C369.324 301.651 369.473 301.587 369.631 301.568C369.79 301.548 369.95 301.575 370.095 301.643C370.239 301.711 370.36 301.819 370.445 301.954C370.53 302.089 370.575 302.246 370.575 302.405V308.905C370.575 309.096 370.537 309.286 370.463 309.463C370.39 309.641 370.282 309.801 370.146 309.937C370.01 310.072 369.849 310.179 369.671 310.252C369.494 310.325 369.304 310.362 369.112 310.361L344.078 310.261Z" fill="#C1D8ED"/>
<path d="M323.637 97.7726C323.637 97.7726 322.195 93.023 319.305 91.1284C316.416 89.2337 316.422 91.3676 317.706 93.5064C318.99 95.6452 322.017 100.145 322.017 100.145" fill="#E98862"/>
<path d="M321.94 95.7899C321.94 95.7899 316.881 89.168 313.922 89.168C313.922 89.168 309.155 91.4476 309.222 92.9202C309.324 95.1395 317.385 103.421 317.385 103.421L321.94 95.7899Z" fill="#E98862"/>
<path d="M351.616 130.008C350.319 130.009 349.061 129.568 348.048 128.758L315.695 102.877L322.832 93.9591L350.046 115.729L366.364 88.1143L376.199 93.9237L356.531 127.205C356.026 128.059 355.307 128.767 354.444 129.259C353.582 129.751 352.607 130.01 351.614 130.01L351.616 130.008Z" fill="#367CFF"/>
<path d="M363.806 146.465C366.085 151.702 410.868 153.877 411.466 144.665C411.847 138.803 406.679 133.686 406.679 122.26C406.679 110.835 417.194 96.2448 408.627 87.6798C406.141 85.1946 401.849 83.5904 396.617 83.585C396.225 86.6357 377.698 86.6466 377.557 83.6557C376.85 83.6665 376.3 83.6774 375.958 83.6937C357.91 84.4714 365.84 105.005 366.015 120.091C366.227 137.743 361.456 141.071 363.806 146.465Z" fill="#367CFF"/>
<path d="M377.557 83.6558C377.699 86.6467 379.325 91.0461 384.345 91.3778C391.036 91.8183 396.225 86.6358 396.617 83.5851H396.6C390.013 83.5835 381.397 83.596 377.557 83.6558Z" fill="#E98862"/>
<path d="M370.966 88.9544L368.674 78.659C368.631 78.4649 368.512 78.2958 368.344 78.1891C368.176 78.0823 367.972 78.0466 367.778 78.0897L360.217 79.7728C360.051 79.8089 359.878 79.7878 359.726 79.7128C359.573 79.6379 359.45 79.5135 359.378 79.36C358.019 76.5418 356.21 73.9643 354.021 71.7293C353.901 71.6088 353.826 71.4511 353.807 71.2822C353.789 71.1133 353.828 70.9431 353.919 70.7994L358.076 64.2623C358.183 64.0946 358.218 63.8918 358.175 63.6981C358.131 63.5044 358.013 63.3358 357.846 63.2291L348.941 57.5681C348.773 57.4622 348.57 57.4269 348.377 57.4701C348.183 57.5134 348.014 57.6315 347.908 57.7987L343.746 64.3325C343.654 64.4756 343.517 64.5833 343.356 64.6381C343.195 64.6929 343.02 64.6916 342.86 64.6343C339.907 63.6006 336.805 63.056 333.676 63.0219C333.506 63.0212 333.342 62.9629 333.209 62.8566C333.076 62.7502 332.984 62.602 332.946 62.4362L331.263 54.8773C331.242 54.7812 331.202 54.6902 331.145 54.6095C331.088 54.5288 331.016 54.4601 330.933 54.4072C330.85 54.3543 330.757 54.3183 330.66 54.3013C330.563 54.2843 330.464 54.2866 330.368 54.308L320.069 56.5996C319.875 56.643 319.706 56.7617 319.599 56.9296C319.492 57.0975 319.457 57.301 319.5 57.4952L321.186 65.0541C321.222 65.2201 321.201 65.3936 321.126 65.5461C321.051 65.6986 320.927 65.8211 320.773 65.8938C317.955 67.2519 315.377 69.0608 313.141 71.2492C313.021 71.3689 312.863 71.4442 312.694 71.4628C312.525 71.4813 312.355 71.4421 312.211 71.3514L305.672 67.1945C305.504 67.0885 305.301 67.0532 305.107 67.0964C304.914 67.1396 304.745 67.2578 304.638 67.4251L298.979 76.3272C298.873 76.4949 298.837 76.6978 298.881 76.8914C298.924 77.085 299.042 77.2537 299.209 77.3604L305.747 81.5167C305.891 81.6085 305.998 81.746 306.053 81.9069C306.108 82.0678 306.107 82.2425 306.05 82.4026C305.016 85.355 304.471 88.4563 304.437 91.5842C304.436 91.7542 304.378 91.9189 304.272 92.0515C304.165 92.184 304.017 92.2766 303.851 92.314L296.29 93.9971C296.096 94.0404 295.927 94.1589 295.82 94.3268C295.714 94.4946 295.678 94.698 295.721 94.8922L298.014 105.188C298.057 105.382 298.176 105.551 298.343 105.658C298.511 105.765 298.715 105.801 298.909 105.757L306.47 104.074C306.636 104.038 306.809 104.059 306.962 104.134C307.115 104.209 307.237 104.333 307.31 104.487C308.668 107.305 310.477 109.883 312.666 112.117C312.786 112.238 312.861 112.396 312.88 112.565C312.898 112.734 312.859 112.904 312.769 113.048L308.611 119.585C308.505 119.752 308.47 119.955 308.513 120.149C308.556 120.343 308.675 120.511 308.842 120.618L317.743 126.276C317.911 126.382 318.113 126.418 318.307 126.375C318.501 126.332 318.67 126.213 318.776 126.046L322.934 119.509C323.026 119.366 323.163 119.258 323.324 119.203C323.485 119.149 323.66 119.15 323.82 119.207C326.773 120.241 329.875 120.786 333.004 120.82C333.174 120.82 333.338 120.878 333.471 120.985C333.604 121.091 333.697 121.239 333.734 121.405L335.417 128.964C335.461 129.158 335.579 129.327 335.747 129.434C335.915 129.54 336.118 129.576 336.312 129.533L346.611 127.241C346.805 127.198 346.974 127.079 347.081 126.911C347.188 126.743 347.223 126.54 347.18 126.346L345.497 118.787C345.461 118.621 345.482 118.447 345.557 118.295C345.632 118.142 345.756 118.02 345.91 117.947C348.729 116.589 351.307 114.78 353.542 112.592C353.663 112.472 353.821 112.397 353.99 112.379C354.159 112.36 354.329 112.4 354.473 112.49L361.011 116.646C361.179 116.752 361.382 116.787 361.575 116.744C361.769 116.701 361.938 116.583 362.045 116.416L367.707 107.516C367.76 107.433 367.796 107.34 367.813 107.243C367.83 107.146 367.828 107.047 367.807 106.95C367.785 106.854 367.745 106.763 367.689 106.682C367.632 106.602 367.56 106.533 367.477 106.48L360.938 102.323C360.795 102.232 360.687 102.094 360.632 101.933C360.577 101.773 360.578 101.598 360.636 101.438C361.67 98.4858 362.215 95.3847 362.249 92.2569C362.25 92.0869 362.308 91.9221 362.414 91.7895C362.521 91.6569 362.669 91.5642 362.835 91.5266L370.396 89.844C370.589 89.8009 370.757 89.6833 370.864 89.5166C370.971 89.35 371.008 89.1479 370.966 88.9544ZM337.504 108.131C334.253 108.966 330.826 108.804 327.668 107.667C324.51 106.53 321.767 104.47 319.795 101.754C317.823 99.0381 316.714 95.7922 316.611 92.4379C316.508 89.0835 317.416 85.7758 319.218 82.9443C321.02 80.1129 323.632 77.8885 326.714 76.5601C329.797 75.2317 333.208 74.8608 336.504 75.4954C339.8 76.13 342.829 77.741 345.198 80.1189C347.566 82.4968 349.165 85.5319 349.786 88.8298C350.573 93.0047 349.741 97.3224 347.46 100.907C345.179 104.491 341.62 107.074 337.504 108.131Z" fill="#FF6333" fill-opacity="0.88"/>
<path d="M367.786 114.647C367.786 114.647 369.045 107.485 363.866 106.893C360.599 106.519 352.384 101.978 350.826 105.773C349.474 109.066 357.319 112.986 360.128 113.713C362.644 114.362 367.786 114.647 367.786 114.647Z" fill="#E98862"/>
<path d="M365.632 107.463C365.632 107.463 358.958 103.805 357.132 103.89C355.516 103.966 358.266 107.092 358.266 107.092L365.632 107.463Z" fill="#E98862"/>
<path d="M389.251 137.243C387.95 137.243 386.685 136.815 385.651 136.025L358.201 115.056L365.402 105.634L386.895 122.052L400.454 91.6992L411.284 96.5347L394.666 133.731C394.199 134.777 393.439 135.664 392.478 136.287C391.517 136.91 390.397 137.242 389.251 137.242V137.243Z" fill="#367CFF"/>
<path d="M395.019 86.7446C395.019 86.7446 390.813 84.515 391.752 73.0646L383.062 71.4561C383.062 71.4561 384.039 81.722 379.642 84.9816L395.019 86.7446Z" fill="#E98862"/>
<g opacity="0.15">
<path d="M381.423 82.8335L388.644 77.3117L382.974 77.2529C382.809 79.1935 382.283 81.0861 381.423 82.8335Z" fill="black"/>
</g>
<path d="M396.683 68.625C396.082 72.0994 394.185 75.3888 391.12 76.5102C387.779 77.8357 384.164 78.3239 380.591 77.9322C371.077 77.1524 372.959 55.5274 377.476 51.326C381.992 47.1246 395.248 49.7854 396.86 56.8114C397.694 60.4462 397.256 65.3181 396.683 68.625Z" fill="#E98862"/>
<path d="M371.782 59.2392C371.782 59.2392 373.646 43.8685 390.533 47.6436C393.263 48.3675 395.694 49.9382 397.476 52.13C398.147 50.7632 399.212 49.6288 400.534 48.8729C401.856 48.1171 403.375 47.7744 404.893 47.8892C406.412 48.0041 407.861 48.571 409.055 49.517C410.248 50.4631 411.13 51.7448 411.588 53.1969C412.046 54.649 412.059 56.205 411.624 57.6642C411.189 59.1235 410.327 60.419 409.149 61.3839C407.971 62.3487 406.53 62.9386 405.014 63.0776C403.497 63.2165 401.974 62.898 400.64 62.1632C400.625 62.3808 400.608 62.6037 400.585 62.8283C399.552 72.3449 391.629 77.1103 391.629 77.1103C391.629 77.1103 389.503 75.5001 390.259 60.1245C386.593 60.4372 378.201 60.8886 371.782 59.2392Z" fill="#0F1011"/>
<path d="M383.074 65.949C383.51 65.949 383.862 65.5962 383.862 65.161C383.862 64.7258 383.51 64.373 383.074 64.373C382.639 64.373 382.286 64.7258 382.286 65.161C382.286 65.5962 382.639 65.949 383.074 65.949Z" fill="#0F1011"/>
<path d="M376.857 65.4392C377.292 65.4392 377.645 65.0864 377.645 64.6513C377.645 64.2161 377.292 63.8633 376.857 63.8633C376.421 63.8633 376.068 64.2161 376.068 64.6513C376.068 65.0864 376.421 65.4392 376.857 65.4392Z" fill="#0F1011"/>
<path d="M375.491 62.9728C375.393 62.9734 375.298 62.9349 375.228 62.8659C375.158 62.7969 375.119 62.7029 375.118 62.6047C375.118 62.5065 375.156 62.412 375.225 62.3422C375.294 62.2723 375.388 62.2327 375.486 62.2322L377.574 62.2061H377.579C377.677 62.2055 377.772 62.2439 377.842 62.313C377.911 62.382 377.951 62.476 377.952 62.5742C377.952 62.6724 377.914 62.7669 377.845 62.8367C377.776 62.9066 377.682 62.9461 377.583 62.9467L375.496 62.9728H375.491Z" fill="#0F1011"/>
<path d="M384.776 63.7337C384.747 63.7337 384.717 63.7303 384.689 63.7234L382.63 63.2285C382.582 63.2176 382.537 63.1974 382.497 63.1689C382.457 63.1404 382.423 63.1043 382.397 63.0627C382.372 63.021 382.354 62.9746 382.346 62.9262C382.339 62.8778 382.341 62.8283 382.352 62.7807C382.364 62.733 382.384 62.6881 382.413 62.6485C382.442 62.609 382.479 62.5756 382.521 62.5502C382.563 62.5249 382.61 62.5082 382.658 62.501C382.707 62.4939 382.756 62.4964 382.804 62.5085L384.862 63.0034C384.95 63.0246 385.027 63.0774 385.079 63.1517C385.131 63.226 385.153 63.3167 385.143 63.4067C385.132 63.4966 385.089 63.5795 385.022 63.6398C384.954 63.7001 384.867 63.7335 384.776 63.7337Z" fill="#0F1011"/>
<path d="M382.71 71.3666C382.71 71.3666 379.801 71.6733 377.76 70.9609C377.76 70.9609 377.777 72.8768 380.079 73.0655C382.38 73.2542 382.71 71.3666 382.71 71.3666Z" fill="white"/>
<path d="M387.176 67.0889C387.116 67.9647 387.405 68.8285 387.978 69.4936C388.551 70.1587 389.362 70.5717 390.237 70.6431C391.112 70.7146 391.981 70.4388 392.654 69.8755C393.327 69.3121 393.752 68.5064 393.836 67.6327C393.879 67.194 393.834 66.7511 393.702 66.3303C393.571 65.9096 393.356 65.5195 393.071 65.1834C392.786 64.8473 392.436 64.572 392.042 64.3739C391.648 64.1759 391.219 64.0591 390.779 64.0305C388.396 63.9549 387.325 65.2502 387.176 67.0889Z" fill="#E98862"/>
<g opacity="0.15">
<path d="M379.576 69.5316C379.641 69.5316 379.704 69.5083 379.754 69.4658C379.803 69.4233 379.835 69.3645 379.845 69.3001C379.855 69.2357 379.841 69.1699 379.806 69.1148C379.772 69.0597 379.718 69.0189 379.656 68.9998L378.053 68.5076L379.175 66.0115C379.204 65.9457 379.206 65.8708 379.181 65.8034C379.155 65.7359 379.104 65.6814 379.038 65.6518C378.972 65.6222 378.897 65.62 378.829 65.6457C378.762 65.6713 378.707 65.7227 378.678 65.7886L377.431 68.5658C377.415 68.601 377.407 68.6391 377.407 68.6776C377.407 68.7162 377.415 68.7543 377.431 68.7894C377.447 68.8245 377.47 68.8559 377.499 68.8814C377.528 68.9068 377.562 68.9259 377.599 68.9372L379.496 69.5196C379.522 69.5275 379.549 69.5315 379.576 69.5316Z" fill="black"/>
</g>
<path d="M186.109 287.164H164.852C161.159 282.303 154.675 272.503 158.864 268.311C160.767 266.407 162.867 268.218 164.814 271.465C164.14 265.108 164.814 259.039 169.236 257.266C173.262 255.651 175.057 260.518 175.753 267.044C177.738 263.335 180.344 260.725 183.749 260.926C188.612 261.219 187.437 267.707 184.592 274.891C186.751 273.248 189.009 272.444 191.212 273.161C195.818 274.668 191.511 281.134 186.109 287.164Z" fill="#4CAF50" fill-opacity="0.79"/>
<path d="M185 310.043H165.398L162.116 287.165H188.282L185 310.043Z" fill="#C1D8ED"/>
</g>
<defs>
<clipPath id="clip0_1472_11310">
<rect width="444" height="326" fill="white"/>
</clipPath>
</defs>
</svg>
